<svg width="38" height="40" xmlns="http://www.w3.org/2000/svg" xmlns:xlink="http://www.w3.org/1999/xlink" xml:space="preserve" overflow="hidden"><g transform="translate(-1060 -312)"><g><g><g><g><path d="M30.875 7.91667 24.1458 7.91667 24.1458 5.9375C24.1458 4.39375 22.9188 3.16667 21.375 3.16667L16.625 3.16667C15.0813 3.16667 13.8542 4.39375 13.8542 5.9375L13.8542 7.91667 7.125 7.91667C6.25417 7.91667 5.54167 8.62917 5.54167 9.5L5.54167 11.0833 32.4583 11.0833 32.4583 9.5C32.4583 8.62917 31.7458 7.91667 30.875 7.91667ZM16.2292 5.9375C16.2292 5.7 16.3875 5.54167 16.625 5.54167L21.375 5.54167C21.6125 5.54167 21.7708 5.7 21.7708 5.9375L21.7708 7.91667 16.2292 7.91667 16.2292 5.9375Z" fill="#000000" fill-rule="nonzero" fill-opacity="1" transform="matrix(1 0 0 1.02632 1060 312)"/><path d="M7.91667 33.25C7.91667 34.1208 8.62917 34.8333 9.5 34.8333L28.5 34.8333C29.3708 34.8333 30.0833 34.1208 30.0833 33.25L30.0833 12.6667 7.91667 12.6667 7.91667 33.25ZM24.1458 15.0417 26.5208 15.0417 26.5208 32.4583 24.1458 32.4583 24.1458 15.0417ZM17.8125 15.0417 20.1875 15.0417 20.1875 32.4583 17.8125 32.4583 17.8125 15.0417ZM11.4792 15.0417 13.8542 15.0417 13.8542 32.4583 11.4792 32.4583 11.4792 15.0417Z" fill="#000000" fill-rule="nonzero" fill-opacity="1" transform="matrix(1 0 0 1.02632 1060 312)"/></g></g></g></g></g></svg>