<svg width="40" height="39" xmlns="http://www.w3.org/2000/svg" xmlns:xlink="http://www.w3.org/1999/xlink" xml:space="preserve" overflow="hidden"><g transform="translate(-1008 -313)"><g><g><g><g><path d="M9.89583 28.1437C10.6875 28.9354 10.6875 30.1625 9.89583 30.9542L6.53125 32.0625 5.9375 31.4688 7.04583 28.1042C7.87708 27.3521 9.10417 27.3521 9.89583 28.1437ZM25.4521 7.48125 5.66042 27.3125 3.16667 34.8333 10.7271 32.3396 30.5187 12.5479" fill="#000000" fill-rule="nonzero" fill-opacity="1" transform="matrix(1.02632 0 0 1 1009 314)"/><path d="M34.3979 6.4125 31.5875 3.60208C30.9542 2.96875 29.9646 2.96875 29.3312 3.60208L26.5604 6.37292 31.5875 11.4 34.3583 8.62917C35.0312 8.03542 35.0312 7.04583 34.3979 6.4125Z" fill="#000000" fill-rule="nonzero" fill-opacity="1" transform="matrix(1.02632 0 0 1 1009 314)"/></g></g></g></g></g></svg>