<svg width="28" height="29" xmlns="http://www.w3.org/2000/svg" xmlns:xlink="http://www.w3.org/1999/xlink" xml:space="preserve" overflow="hidden"><g transform="translate(-360 -348)"><g><path d="M21.5848 6.125 20.9589 6.125 19.8074 3.82083 8.51812 3.17712 7.04404 6.125 6.41812 6.125 6.41812 10.2083 7.56904 10.2083 9.02738 25.0833 19.0727 25.0833 20.531 10.2083 21.5848 10.2083ZM8.16812 7.58333 19.8348 7.58333 19.8348 8.45833 8.16812 8.45833ZM18.6958 5.5125 19.1482 6.41667 8.85471 6.41667 9.56812 4.98954ZM10.6143 23.3333 10.2996 20.125 17.8004 20.125 17.4857 23.3333ZM18.4867 13.125 9.61333 13.125 9.3275 10.2083 18.7725 10.2083Z" fill="#000000" fill-rule="nonzero" fill-opacity="1" transform="matrix(1 0 0 1.03571 360 348)"/></g></g></svg>