<svg width="29" height="29" xmlns="http://www.w3.org/2000/svg" xmlns:xlink="http://www.w3.org/1999/xlink" xml:space="preserve" overflow="hidden"><g transform="translate(-388 -348)"><g><path d="M404.01 356.368C401.956 356.972 400.567 358.875 400.567 360.99L410.233 360.99C410.233 358.724 408.663 356.791 406.487 356.277 405.763 352.622 402.379 350.115 398.664 350.447 394.948 350.809 392.108 353.951 392.108 357.667L392.108 374.583 394.525 374.583 394.525 357.667C394.555 355.28 396.307 353.256 398.694 352.924 401.08 352.592 403.346 354.042 404.01 356.368Z" fill="#000000" fill-rule="nonzero" fill-opacity="1"/><path d="M410.535 362.198 400.265 362.198C399.751 362.198 399.358 362.591 399.358 363.104 399.358 363.618 399.751 364.01 400.265 364.01L410.535 364.01C411.049 364.01 411.442 363.618 411.442 363.104 411.442 362.591 411.049 362.198 410.535 362.198Z" fill="#000000" fill-rule="nonzero" fill-opacity="1"/><path d="M405.672 374.644C405.34 374.644 405.068 374.372 405.068 374.04L405.068 365.883C405.068 365.551 405.34 365.279 405.672 365.279 406.004 365.279 406.276 365.551 406.276 365.883L406.276 374.04C406.276 374.372 406.004 374.644 405.672 374.644Z" fill="#000000" fill-rule="nonzero" fill-opacity="1"/><path d="M409.297 374.583C408.995 374.583 408.723 374.372 408.693 374.07L407.484 366.004C407.424 365.672 407.666 365.37 407.998 365.309 408.33 365.249 408.632 365.491 408.693 365.823L409.901 373.889C409.931 374.04 409.871 374.221 409.78 374.342 409.69 374.462 409.539 374.553 409.388 374.583L409.297 374.583Z" fill="#000000" fill-rule="nonzero" fill-opacity="1"/><path d="M412.892 374.281C412.62 374.281 412.378 374.1 412.318 373.858L409.931 366.065C409.841 365.763 410.022 365.43 410.354 365.34 410.656 365.249 410.989 365.4 411.109 365.702L413.496 373.496C413.556 373.677 413.526 373.889 413.405 374.04 413.254 374.191 413.073 374.281 412.892 374.281Z" fill="#000000" fill-rule="nonzero" fill-opacity="1"/><path d="M402.017 374.583 401.926 374.583C401.594 374.523 401.382 374.221 401.413 373.889L402.621 365.823C402.681 365.491 402.983 365.249 403.316 365.309 403.648 365.37 403.89 365.672 403.829 366.004L402.621 374.07C402.591 374.372 402.319 374.583 402.017 374.583Z" fill="#000000" fill-rule="nonzero" fill-opacity="1"/><path d="M398.422 374.281C398.241 374.281 398.059 374.191 397.939 374.04 397.818 373.889 397.788 373.677 397.848 373.496L400.234 365.702C400.355 365.4 400.657 365.249 400.99 365.34 401.292 365.43 401.473 365.763 401.413 366.065L399.026 373.858C398.935 374.1 398.694 374.281 398.422 374.281Z" fill="#000000" fill-rule="nonzero" fill-opacity="1"/></g></g></svg>